<svg viewBox="0 -4 512 511" class="svg_icon" xmlns="http://www.w3.org/2000/svg"><g fill="#eaca6f"><path d="m76.800781 375.964844h-68.265625c-4.714844 0-8.535156-3.820313-8.535156-8.53125 0-4.714844 3.820312-8.535156 8.535156-8.535156h66.335938l134.828125-64.1875c4.253906-2.023438 9.347656-.21875 11.375 4.039062 2.023437 4.253906.21875 9.347656-4.039063 11.375l-136.566406 64.988281c-1.144531.554688-2.398438.847657-3.667969.851563zm0 0"/><path d="m298.667969 270.316406c-3.972657-.019531-7.402344-2.773437-8.28125-6.644531-.878907-3.875 1.027343-7.839844 4.601562-9.570313l136.535157-65.015624c1.144531-.554688 2.402343-.847657 3.675781-.851563h68.265625c4.714844 0 8.535156 3.820313 8.535156 8.53125 0 4.714844-3.820312 8.535156-8.535156 8.535156h-66.335938l-134.828125 64.1875c-1.136719.539063-2.375.824219-3.632812.828125zm0 0"/><path d="m366.933594 469.832031c-68.949219 0-102.398438-44.542969-102.398438-118.699219 0-4.710937-3.824218-8.53125-8.535156-8.53125s-8.535156 3.820313-8.535156 8.53125c0 74.15625-33.449219 118.699219-102.398438 118.699219-4.710937 0-8.53125 3.820313-8.53125 8.535157 0 4.710937 3.820313 8.53125 8.53125 8.53125 17.863282.316406 35.636719-2.570313 52.480469-8.53125h177.917969c0-4.714844-3.820313-8.535157-8.53125-8.535157zm0 0"/></g><path d="m298.667969 282.101562c0 23.5625-19.105469 42.664063-42.667969 42.664063s-42.667969-19.101563-42.667969-42.664063c0-23.566406 19.105469-42.667968 42.667969-42.667968s42.667969 19.101562 42.667969 42.667968zm0 0" fill="#bfa057"/><path d="m264.535156 282.101562c0 4.710938-3.824218 8.53125-8.535156 8.53125s-8.535156-3.820312-8.535156-8.53125c0-4.714843 3.824218-8.535156 8.535156-8.535156s8.535156 3.820313 8.535156 8.535156zm0 0" fill="#eaca6f"/><path d="m264.535156 444.234375c0 4.710937-3.824218 8.53125-8.535156 8.53125s-8.535156-3.820313-8.535156-8.53125c0-4.714844 3.824218-8.535156 8.535156-8.535156s8.535156 3.820312 8.535156 8.535156zm0 0" fill="#bfa057"/><path d="m443.734375 162.632812h51.199219c4.710937 0 8.53125 3.820313 8.53125 8.535157v17.066406c0 4.710937-3.820313 8.53125-8.53125 8.53125h-51.199219c-4.714844 0-8.535156-3.820313-8.535156-8.53125v-17.066406c0-4.714844 3.820312-8.535157 8.535156-8.535157zm0 0" fill="#5dc382"/><path d="m443.734375 128.5h51.199219c4.710937 0 8.53125 3.820312 8.53125 8.535156v17.066406c0 4.710938-3.820313 8.53125-8.53125 8.53125h-51.199219c-4.714844 0-8.535156-3.820312-8.535156-8.53125v-17.066406c0-4.714844 3.820312-8.535156 8.535156-8.535156zm0 0" fill="#23b972"/><path d="m443.734375 94.367188h51.199219c4.710937 0 8.53125 3.820312 8.53125 8.53125v17.066406c0 4.714844-3.820313 8.535156-8.53125 8.535156h-51.199219c-4.714844 0-8.535156-3.820312-8.535156-8.535156v-17.066406c0-4.710938 3.820312-8.53125 8.535156-8.53125zm0 0" fill="#5dc382"/><path d="m17.066406 333.300781h51.199219c4.714844 0 8.535156 3.820313 8.535156 8.53125v17.066407c0 4.714843-3.820312 8.535156-8.535156 8.535156h-51.199219c-4.710937 0-8.53125-3.820313-8.53125-8.535156v-17.066407c0-4.710937 3.820313-8.53125 8.53125-8.53125zm0 0" fill="#23b972"/><path d="m17.066406 299.167969h51.199219c4.714844 0 8.535156 3.820312 8.535156 8.53125v17.066406c0 4.714844-3.820312 8.535156-8.535156 8.535156h-51.199219c-4.710937 0-8.53125-3.820312-8.53125-8.535156v-17.066406c0-4.710938 3.820313-8.53125 8.53125-8.53125zm0 0" fill="#5dc382"/><path d="m17.066406 265.035156h51.199219c4.714844 0 8.535156 3.820313 8.535156 8.53125v17.066406c0 4.714844-3.820312 8.535157-8.535156 8.535157h-51.199219c-4.710937 0-8.53125-3.820313-8.53125-8.535157v-17.066406c0-4.710937 3.820313-8.53125 8.53125-8.53125zm0 0" fill="#23b972"/><path d="m17.066406 230.898438h51.199219c4.714844 0 8.535156 3.820312 8.535156 8.535156v17.066406c0 4.710938-3.820312 8.535156-8.535156 8.535156h-51.199219c-4.710937 0-8.53125-3.824218-8.53125-8.535156v-17.066406c0-4.714844 3.820313-8.535156 8.53125-8.535156zm0 0" fill="#5dc382"/><path d="m17.066406 196.765625h51.199219c4.714844 0 8.535156 3.820313 8.535156 8.535156v17.066407c0 4.710937-3.820312 8.53125-8.535156 8.53125h-51.199219c-4.710937 0-8.53125-3.820313-8.53125-8.53125v-17.066407c0-4.714843 3.820313-8.535156 8.53125-8.535156zm0 0" fill="#23b972"/><path d="m17.066406 162.632812h51.199219c4.714844 0 8.535156 3.820313 8.535156 8.535157v17.066406c0 4.710937-3.820312 8.53125-8.535156 8.53125h-51.199219c-4.710937 0-8.53125-3.820313-8.53125-8.53125v-17.066406c0-4.714844 3.820313-8.535157 8.53125-8.535157zm0 0" fill="#5dc382"/><path d="m256 359.675781c-4.710938 0-8.535156-3.820312-8.535156-8.53125-.273438-9.445312-7.644532-17.148437-17.066406-17.84375-9.085938 0-17.066407 5.253907-17.066407 11.246094 0 4.710937-3.820312 8.535156-8.53125 8.535156-4.714843 0-8.535156-3.824219-8.535156-8.535156 0-15.617187 15.308594-28.3125 34.132813-28.3125 18.859374.6875 33.871093 16.039063 34.136718 34.910156 0 4.710938-3.824218 8.53125-8.535156 8.53125zm0 0" fill="#eaca6f"/><path d="m256 359.675781c-4.710938 0-8.535156-3.820312-8.535156-8.53125.265625-18.871093 15.277344-34.222656 34.136718-34.910156 18.824219 0 34.132813 12.695313 34.132813 28.3125 0 4.710937-3.820313 8.535156-8.535156 8.535156-4.710938 0-8.53125-3.824219-8.53125-8.535156 0-5.972656-7.980469-11.246094-17.066407-11.246094-9.421874.695313-16.792968 8.398438-17.066406 17.84375 0 4.710938-3.824218 8.53125-8.535156 8.53125zm0 0" fill="#eaca6f"/><path d="m392.535156 486.898438c-.070312 9.398437-7.671875 17-17.070312 17.066406h-238.929688c-9.414062-.027344-17.039062-7.652344-17.070312-17.066406.070312-9.394532 7.671875-16.996094 17.070312-17.066407h238.929688c9.414062.03125 17.039062 7.652344 17.070312 17.066407zm0 0" fill="#bfa057"/><path d="m42.667969 461.300781c-4.714844 0-8.535157-3.820312-8.535157-8.535156v-51.199219c0-4.710937 3.820313-8.53125 8.535157-8.53125 4.710937 0 8.53125 3.820313 8.53125 8.53125v51.199219c0 4.714844-3.820313 8.535156-8.53125 8.535156zm0 0" fill="#ed634c"/><path d="m42.667969 461.300781c-2.265625 0-4.433594-.902343-6.035157-2.5l-25.597656-25.601562c-3.234375-3.347657-3.1875-8.671875.101563-11.960938 3.292969-3.292969 8.613281-3.339843 11.964843-.105469l19.566407 19.566407 19.566406-19.566407c3.347656-3.234374 8.667969-3.1875 11.960937.105469 3.292969 3.289063 3.339844 8.613281.105469 11.960938l-25.601562 25.601562c-1.597657 1.597657-3.769531 2.5-6.03125 2.5zm0 0" fill="#ed634c"/><path d="m469.332031 68.765625c-4.710937 0-8.53125-3.820313-8.53125-8.53125v-51.199219c0-4.714844 3.820313-8.535156 8.53125-8.535156 4.714844 0 8.535157 3.820312 8.535157 8.535156v51.199219c0 4.710937-3.820313 8.53125-8.535157 8.53125zm0 0" fill="#5dc382"/><path d="m494.933594 43.167969c-2.261719 0-4.433594-.902344-6.035156-2.5l-19.566407-19.570313-19.566406 19.570313c-3.347656 3.230469-8.667969 3.1875-11.960937-.105469-3.292969-3.292969-3.339844-8.613281-.105469-11.960938l25.601562-25.601562c3.332031-3.332031 8.734375-3.332031 12.066407 0l25.597656 25.601562c2.441406 2.4375 3.171875 6.109376 1.851562 9.296876-1.320312 3.1875-4.433594 5.265624-7.882812 5.269531zm0 0" fill="#5dc382"/><path d="m324.265625 77.300781c0 37.703125-30.5625 68.265625-68.265625 68.265625s-68.265625-30.5625-68.265625-68.265625 30.5625-68.265625 68.265625-68.265625 68.265625 30.5625 68.265625 68.265625zm0 0" fill="#ebeced"/><path d="m256 9.035156v34.132813c-9.050781.015625-17.730469 3.601562-24.148438 9.984375l-24.148437-24.152344c12.820313-12.785156 30.1875-19.96875 48.296875-19.964844zm0 0" fill="#ebeced"/><path d="m304.296875 29-24.148437 24.152344c-6.417969-6.382813-15.097657-9.96875-24.148438-9.984375v-34.132813c18.109375-.003906 35.476562 7.179688 48.296875 19.964844zm0 0" fill="#23b972"/><path d="m324.265625 77.300781h-34.132813c-.015624-9.050781-3.605468-17.730469-9.984374-24.148437l24.148437-24.152344c12.789063 12.820312 19.972656 30.191406 19.96875 48.300781zm0 0" fill="#ebeced"/><path d="m324.265625 77.300781c.003906 18.109375-7.179687 35.476563-19.96875 48.296875l-24.148437-24.148437c6.378906-6.417969 9.96875-15.097657 9.984374-24.148438zm0 0" fill="#23b972"/><path d="m304.296875 125.597656c-12.820313 12.789063-30.1875 19.96875-48.296875 19.96875v-34.132812c9.050781-.015625 17.730469-3.605469 24.148438-9.984375zm0 0" fill="#ebeced"/><path d="m256 111.433594v34.132812c-18.109375 0-35.476562-7.179687-48.296875-19.96875l24.148437-24.148437c6.417969 6.378906 15.097657 9.96875 24.148438 9.984375zm0 0" fill="#23b972"/><path d="m231.851562 101.449219-24.148437 24.148437c-12.789063-12.820312-19.972656-30.1875-19.96875-48.296875h34.132813c.015624 9.050781 3.605468 17.730469 9.984374 24.148438zm0 0" fill="#ebeced"/><path d="m231.851562 53.152344c-6.378906 6.417968-9.96875 15.097656-9.984374 24.148437h-34.132813c-.003906-18.109375 7.179687-35.480469 19.96875-48.300781zm0 0" fill="#23b972"/><path d="m290.132812 77.300781c-.019531 16.257813-11.523437 30.242188-27.472656 33.398438-15.949218 3.15625-31.910156-5.394531-38.121094-20.417969-6.214843-15.027344-.949218-32.347656 12.574219-41.378906 13.523438-9.027344 31.539063-7.25 43.035157 4.25 6.378906 6.417968 9.96875 15.097656 9.984374 24.148437zm0 0" fill="#5dc382"/></svg>