<svg id="Flat" viewBox="0 0 512 512" class="svg_icon" xmlns="http://www.w3.org/2000/svg"><path d="m168 24h320v440h-320z" fill="#65dcff"/><path d="m216 184h16v88h-16z" fill="#57c1ff"/><path d="m296 184h16v88h-16z" fill="#57c1ff"/><path d="m352 184h16v112h-16z" fill="#57c1ff"/><path d="m408 184h16v112h-16z" fill="#57c1ff"/><path d="m336 312h128v16h-128z" fill="#57c1ff"/><path d="m408 344h56v16h-56z" fill="#57c1ff"/><path d="m200 56h80v32h-80z" fill="#a0cc00"/><g fill="#57c1ff"><path d="m368 48h48v16h-48z"/><path d="m432 48h32v16h-32z"/><path d="m368 80h32v16h-32z"/><path d="m416 80h32v16h-32z"/><path d="m320 112h16v16h-16z"/><path d="m352 112h16v16h-16z"/><path d="m384 112h32v16h-32z"/><path d="m336 392h48v16h-48z"/><path d="m400 392h32v16h-32z"/><path d="m336 424h96v16h-96z"/></g><path d="m200 152h256v32h-256z" fill="#3d9de6"/><path d="m72 248h192v288h-192z" fill="#3ea7ff" transform="matrix(0 -1 1 0 -224 560)"/><path d="m68 332h48v56h-48z" fill="#f2e368" transform="matrix(0 -1 1 0 -268 452)"/><path d="m48 408h16v16h-16z" fill="#2b7cd4"/><path d="m80 408h16v16h-16z" fill="#2b7cd4"/><path d="m112 408h16v16h-16z" fill="#2b7cd4"/><path d="m144 408h16v16h-16z" fill="#2b7cd4"/><path d="m48 440h48v16h-48z" fill="#2b7cd4"/><path d="m112 440h32v16h-32z" fill="#2b7cd4"/><circle cx="256" cy="432" fill="#fc7" r="24"/><circle cx="216" cy="432" fill="#eb352f" r="24"/></svg>