<svg  viewBox="0 0 512 512" class="svg_icon" xmlns="http://www.w3.org/2000/svg"><g id="flat"><rect fill="#92d1f7" height="464" rx="29" width="240.381" x="167.619" y="24"/><path d="m312 464h-40a8 8 0 0 1 0-16h40a8 8 0 0 1 0 16z" fill="#5ebef7"/><rect fill="#5ebef7" height="40" rx="20" width="110.095" x="233.905" y="24"/><rect fill="#a6deff" height="464" rx="29" width="243.048" x="24" y="24"/><rect fill="#92d1f7" height="40" rx="20" width="112" x="88" y="24"/><rect fill="#5ebef7" height="320" rx="28" width="56" x="72" y="112"/><path d="m72 153.786h362a6 6 0 0 1 6 6v193.071a6 6 0 0 1 -6 6h-362a0 0 0 0 1 0 0v-205.071a0 0 0 0 1 0 0z" fill="#89b140"/><path d="m368 313.286h-224a22.785 22.785 0 0 0 -22.786-22.786h-1.214v-68.357h1.214a22.786 22.786 0 0 0 22.786-22.786h224a22.786 22.786 0 0 0 22.786 22.786h1.214v68.357h-1.214a22.786 22.786 0 0 0 -22.786 22.786z" fill="#79a73a"/><circle cx="257.714" cy="256.321" fill="#aac16b" r="56.964"/><path d="m440 168h26a6 6 0 0 1 6 6v212a6 6 0 0 1 -6 6h-394v-33.143h362a6 6 0 0 0 6-6z" fill="#79a73a"/><path d="m168 464h-40a8 8 0 0 1 0-16h40a8 8 0 0 1 0 16z" fill="#92d1f7"/><path d="m216 464h-16a8 8 0 0 1 0-16h16a8 8 0 0 1 0 16z" fill="#92d1f7"/><path d="m360 464h-16a8 8 0 0 1 0-16h16a8 8 0 0 1 0 16z" fill="#5ebef7"/></g></svg>